<svg xmlns="http://www.w3.org/2000/svg" width="100%" height="100%" viewBox="0 0 121 27" fill="none">
  <path d="M13.0008 20.0414C12.3088 20.0414 11.664 19.9461 11.0202 19.7554V19.7544C10.8777 19.7072 10.7106 19.778 10.6389 19.9215C10.5435 20.0414 10.5671 20.2085 10.6624 20.3274C12.357 22.2844 14.8378 23.5248 17.6057 23.5248C20.5642 23.5248 22.6155 22.1891 23.9759 20.1368C24.5725 19.2541 24.6207 18.2044 24.1194 17.2736C23.6192 16.3192 22.7119 15.7707 21.6386 15.7707H21.3044C20.2547 15.7707 19.3474 16.2474 18.7272 17.1065C17.4622 18.8728 15.3627 20.0414 13.0008 20.0414Z" fill="#7950F2"></path>
  <path d="M13.0008 26.0303C10.9731 26.0303 9.04068 25.5536 7.32255 24.7181H7.3246C5.2487 23.7155 3.55518 22.2127 2.29016 20.3992V20.3756C0.835488 18.2761 0 15.7461 0 13.0028C0 5.82175 5.82175 0 13.0028 0C16.271 0 19.2777 1.21684 21.5443 3.1974C22.4505 3.98471 23.2378 4.89093 23.9062 5.89351C24.4782 6.77615 24.5264 7.82589 24.0251 8.75672C23.5248 9.68754 22.6176 10.236 21.5443 10.236H21.3054C20.2557 10.236 19.3484 9.78288 18.7282 8.92381C17.416 7.08677 15.3166 5.98885 13.0018 5.98885C3.43421 5.98885 3.29069 21.4735 13.2878 25.3383C13.4303 25.3855 13.5257 25.5526 13.5021 25.7197C13.4785 25.8868 13.335 26.0067 13.1443 26.0303H13.0008Z" fill="#7950F2"></path>
  <path d="M37.8679 8.34098C33.9359 8.34098 31.4633 11.2088 31.4629 15.0659V15.0648V15.0669V15.0659C31.4633 18.9229 33.9113 21.7908 37.8679 21.7908C40.7619 21.7908 43.0613 20.2582 43.8773 17.4391C43.9019 17.3899 43.8773 17.315 43.8281 17.2412C43.8035 17.192 43.7287 17.1674 43.6548 17.1674H40.8603C40.7619 17.1674 40.6625 17.2176 40.6379 17.316C40.1673 18.6016 39.2283 19.1459 37.8679 19.1459C35.4937 19.1459 34.6039 17.192 34.6039 15.0659C34.6039 12.9397 35.5183 11.0104 37.8679 11.0104C39.1791 11.0104 40.193 11.5794 40.6379 12.8403C40.6625 12.9151 40.7619 12.9889 40.8603 12.9889H43.6548C43.7297 12.9889 43.8035 12.9643 43.8281 12.8905C43.8773 12.8413 43.9019 12.7665 43.8773 12.6927C43.0859 9.77514 40.8357 8.34098 37.8679 8.34098Z" fill="#1A1C37"></path>
  <path fill-rule="evenodd" clip-rule="evenodd" d="M51.6653 19.1469C49.861 19.1469 48.5991 18.0101 48.3274 16.2786V16.2776H57.6992C57.7976 16.2776 57.8971 16.1781 57.9217 16.0797C57.9955 15.6348 58.0201 15.2145 58.0201 14.7696C58.0201 11.0104 55.6469 8.33995 51.6653 8.33995C47.6836 8.33995 45.1618 11.2083 45.1618 15.0659C45.1618 18.9235 47.7339 21.7918 51.6653 21.7918C54.4106 21.7918 56.7848 20.3576 57.65 17.6871C57.6746 17.6133 57.6746 17.5385 57.6254 17.4893C57.5762 17.4155 57.5014 17.3909 57.4276 17.3909H54.633C54.5336 17.3909 54.4598 17.4411 54.4352 17.5149C53.8662 18.6528 52.9016 19.1469 51.6653 19.1469ZM54.8319 13.7076H48.3776C48.6995 12.1248 49.8374 11.0125 51.5433 11.0125C53.2491 11.0125 54.6587 12.0017 54.8319 13.7076Z" fill="#1A1C37"></path>
  <path d="M60.098 4.48339V21.3479C60.098 21.4966 60.2211 21.595 60.3451 21.595H62.9418C63.0658 21.595 63.1642 21.4966 63.1642 21.3479V4.48339C63.1642 4.36037 63.0658 4.23633 62.9418 4.23633H60.3451C60.2221 4.23633 60.098 4.35934 60.098 4.48339Z" fill="#1A1C37"></path>
  <path d="M66.132 4.48339V21.3479C66.132 21.4966 66.2304 21.595 66.3544 21.595H68.9511C69.0998 21.595 69.1982 21.4966 69.1982 21.3479V4.48339C69.1982 4.36037 69.0998 4.23633 68.9511 4.23633H66.3544C66.2304 4.23633 66.132 4.35934 66.132 4.48339Z" fill="#1A1C37"></path>
  <path d="M77.6812 8.34098C73.7491 8.34098 71.3012 11.2088 71.3007 15.0659V15.0648V15.0669V15.0659C71.3012 18.9229 73.7501 21.7908 77.6812 21.7908C80.5751 21.7908 82.8991 20.2582 83.6905 17.4391C83.7151 17.3899 83.7151 17.315 83.6659 17.2412C83.6167 17.192 83.5419 17.1674 83.4681 17.1674H80.6736C80.5751 17.1674 80.5003 17.2176 80.4511 17.316C79.9806 18.6016 79.0415 19.1459 77.6812 19.1459C75.3326 19.1459 74.4171 17.192 74.4171 15.0659C74.4171 12.9397 75.3316 11.0104 77.6812 11.0104C78.9923 11.0104 80.0062 11.5794 80.4511 12.8403C80.5003 12.9151 80.5751 12.9889 80.6736 12.9889H83.4681C83.5419 12.9889 83.6167 12.9643 83.6659 12.8905C83.7151 12.8413 83.7151 12.7665 83.6905 12.6927C82.9237 9.77514 80.6489 8.34098 77.6812 8.34098Z" fill="#1A1C37"></path>
  <path fill-rule="evenodd" clip-rule="evenodd" d="M95.2623 8.78589V9.9976H95.2613C94.1982 8.88532 92.6902 8.34098 91.132 8.34098C87.3738 8.34098 84.975 11.4328 84.975 15.0177C84.975 18.6026 87.3482 21.7928 91.1074 21.7928C92.6656 21.7928 94.1992 21.2239 95.2623 20.1116V21.3479C95.2623 21.4966 95.3853 21.595 95.5093 21.595H98.1306C98.2547 21.595 98.3531 21.4966 98.3531 21.3479V8.78589C98.3531 8.66184 98.2547 8.56343 98.1306 8.56343H95.5093C95.3863 8.56343 95.2623 8.66184 95.2623 8.78589ZM91.702 11.0617C93.9276 11.0617 95.2633 12.9408 95.2633 15.0679C95.2633 17.1951 93.9522 19.0742 91.702 19.0742C89.4518 19.0742 88.116 17.1705 88.116 15.0187C88.116 12.867 89.4764 11.0617 91.702 11.0617Z" fill="#1A1C37"></path>
  <path d="M106.118 21.7938C108.542 21.7938 111.163 20.5821 111.163 17.8368L111.162 17.8378C111.074 15.0775 108.563 14.3873 106.521 13.8263C105.106 13.4375 103.916 13.1107 103.916 12.1996C103.916 11.2103 105.053 11.0125 105.82 11.0125C106.884 11.0125 107.849 11.482 107.947 12.6445C107.947 12.7685 108.046 12.8424 108.17 12.8424H110.766C110.841 12.8424 110.89 12.8188 110.94 12.7685C110.989 12.7183 110.989 12.6691 110.989 12.6199C110.84 9.75156 108.615 8.342 105.92 8.342C103.57 8.342 100.85 9.52911 100.85 12.1996C100.85 15.0553 103.462 15.7507 105.559 16.3094C106.968 16.6846 108.145 16.9981 108.145 17.8624C108.145 18.9009 106.884 19.148 106.068 19.148C105.054 19.148 103.892 18.6036 103.793 17.4913C103.769 17.3673 103.67 17.2689 103.546 17.2689H100.876C100.801 17.2689 100.752 17.2935 100.703 17.3427C100.653 17.3919 100.629 17.4421 100.629 17.5159C100.778 20.3597 103.546 21.7938 106.118 21.7938Z" fill="#1A1C37"></path>
  <path d="M112.672 11.1355H113.908V17.8614C113.908 20.4325 115.293 21.595 117.766 21.595H119.818C119.967 21.595 120.065 21.4966 120.065 21.3479V19.1961C120.065 19.0721 119.967 18.9737 119.818 18.9737H118.236C117.37 18.9737 116.999 18.7512 116.999 17.8614V11.1355H119.818C119.967 11.1355 120.065 11.0371 120.065 10.913V8.78589C120.065 8.66184 119.967 8.56343 119.818 8.56343H116.999V5.6705C116.999 5.52185 116.901 5.42344 116.777 5.42344H114.156C114.033 5.42344 113.908 5.52185 113.908 5.6705V8.56343H112.672C112.549 8.56343 112.425 8.66184 112.425 8.78589V10.913C112.425 11.0371 112.548 11.1355 112.672 11.1355Z" fill="#1A1C37"></path>
</svg>